<svg width="16" height="16" viewBox="0 0 16 16" fill="none" xmlns="http://www.w3.org/2000/svg">
<path fill-rule="evenodd" clip-rule="evenodd" d="M3.13484 5.82439C2.63595 4.494 2.74114 3.59503 3.16812 3.16805C3.59509 2.74108 4.49406 2.63589 5.82445 3.13478C6.22752 3.28593 6.65206 3.48689 7.08796 3.7346C6.47851 4.18527 5.87233 4.70652 5.28944 5.28942C4.70656 5.8723 4.18531 6.47845 3.73466 7.08789C3.48695 6.65199 3.28599 6.22746 3.13484 5.82439ZM6.17557 2.19845C6.76242 2.41852 7.37773 2.72689 8.00005 3.11395C8.62234 2.72691 9.23762 2.41856 9.82445 2.1985C11.2239 1.67371 12.6642 1.58622 13.539 2.46099C14.4138 3.33577 14.3263 4.77611 13.8015 6.17556C13.5814 6.76239 13.2731 7.37768 12.886 7.99997C13.2731 8.62227 13.5814 9.23756 13.8015 9.82439C14.3263 11.2238 14.4138 12.6642 13.539 13.539C12.6642 14.4137 11.2239 14.3262 9.82445 13.8014C9.23762 13.5814 8.62234 13.273 8.00005 12.886C7.37773 13.2731 6.76242 13.5814 6.17557 13.8015C4.77612 14.3263 3.33578 14.4138 2.46101 13.539C1.58624 12.6642 1.67372 11.2239 2.19851 9.82444C2.41858 9.23759 2.72695 8.62228 3.11401 7.99997C2.72695 7.37766 2.41858 6.76236 2.19851 6.17551C1.67372 4.77606 1.58624 3.33572 2.46101 2.46095C3.33578 1.58618 4.77612 1.67366 6.17557 2.19845ZM5.99654 5.99653C6.65171 5.34136 7.33085 4.77606 8.00005 4.31091C8.66922 4.77605 9.34833 5.34133 10.0035 5.99648C10.6586 6.65165 11.2239 7.33078 11.6891 7.99997C11.2239 8.66916 10.6586 9.3483 10.0035 10.0035C9.34833 10.6586 8.66921 11.2239 8.00004 11.689C7.33085 11.2239 6.65171 10.6586 5.99654 10.0034C5.34139 9.34827 4.7761 8.66915 4.31096 7.99997C4.7761 7.3308 5.34139 6.65168 5.99654 5.99653ZM10.7106 5.28937C11.2935 5.87227 11.8147 6.47843 12.2654 7.08789C12.5131 6.652 12.714 6.22749 12.8652 5.82444C13.3641 4.49405 13.2589 3.59508 12.8319 3.1681C12.4049 2.74112 11.506 2.63593 10.1756 3.13483C9.77252 3.28597 9.34801 3.48692 8.91213 3.73461C9.52157 4.18526 10.1277 4.7065 10.7106 5.28937ZM10.7106 10.7106C11.2935 10.1277 11.8147 9.52151 12.2654 8.91206C12.5131 9.34794 12.714 9.77246 12.8652 10.1755C13.3641 11.5059 13.2589 12.4049 12.8319 12.8318C12.4049 13.2588 11.506 13.364 10.1756 12.8651C9.77252 12.714 9.34801 12.513 8.91213 12.2653C9.52156 11.8147 10.1277 11.2934 10.7106 10.7106ZM5.28944 10.7105C5.87233 11.2934 6.4785 11.8147 7.08796 12.2653C6.65206 12.5131 6.22752 12.714 5.82445 12.8652C4.49406 13.3641 3.59509 13.2589 3.16812 12.8319C2.74114 12.4049 2.63595 11.5059 3.13484 10.1756C3.28599 9.77249 3.48695 9.34796 3.73466 8.91205C4.18531 9.52149 4.70656 10.1276 5.28944 10.7105ZM7.16669 7.99997C7.16669 7.53974 7.53978 7.16664 8.00002 7.16664C8.46026 7.16664 8.83335 7.53974 8.83335 7.99997C8.83335 8.46021 8.46026 8.83331 8.00002 8.83331C7.53978 8.83331 7.16669 8.46021 7.16669 7.99997ZM8.00002 6.16664C6.9875 6.16664 6.16669 6.98745 6.16669 7.99997C6.16669 9.0125 6.9875 9.83331 8.00002 9.83331C9.01254 9.83331 9.83335 9.0125 9.83335 7.99997C9.83335 6.98745 9.01254 6.16664 8.00002 6.16664Z" fill="#00C3CC"/>
</svg>
