<svg width="24" height="24" viewBox="0 0 24 24" fill="none" xmlns="http://www.w3.org/2000/svg">
<g id="light/main/inner-join">
<path id="Union" fill-rule="evenodd" clip-rule="evenodd" d="M5 5H14V8H12.875H10H8V10V12.875V14H5V5ZM8 16H5H3V14V5V3H5H14H16V5V8H19H21V10V19V21H19H10H8V19V16ZM16 10H19V19H10V16H14H16V14V10ZM14 10V14H10V12.875V10H12.875H14Z" fill="#00C3CC"/>
<path id="Rectangle 429" fill-rule="evenodd" clip-rule="evenodd" d="M9 9H15V15H9V9Z" fill="#00C3CC" fill-opacity="0.4"/>
</g>
</svg>
