<?xml version="1.0" standalone="no"?><!DOCTYPE svg PUBLIC "-//W3C//DTD SVG 1.1//EN" "http://www.w3.org/Graphics/SVG/1.1/DTD/svg11.dtd"><svg t="1568267111969" class="icon" viewBox="0 0 1024 1024" version="1.1" xmlns="http://www.w3.org/2000/svg" p-id="3598" width="32" height="32" xmlns:xlink="http://www.w3.org/1999/xlink"><defs><style type="text/css"></style></defs><path d="M333.59644445 660.18417778c75.85185184 81.31318518 147.57736297 158.01457778 147.57736296 302.4365037 0 17.23354075 13.95674075 31.31164445 31.31164444 31.31164444 17.23354075 0 31.31164445-13.95674075 31.31164445-31.31164444 0-144.42192592 71.1186963-221.24468148 146.36373333-302.55786666 73.0605037-79.00728889 148.79099259-160.68456297 148.79099259-302.19377779 0-87.50269629-34.10299259-169.78678518-95.9981037-231.68189628S598.77451852 30.18903702 511.27182222 30.18903703s-169.90814815 33.98162963-231.80325925 95.87674075-95.9981037 144.1792-95.99810372 231.6818963c0 141.75194075 76.3373037 223.42921482 150.1259852 302.4365037z m-11.1653926-367.60841481c4.97588148-12.01493333 16.62672592-19.29671111 28.88438518-19.29671112 4.00497778 0 8.00995555 0.72817777 12.01493334 2.42725926 16.01991111 6.67496297 23.54441482 24.87940741 16.86945185 40.89931852-5.33997037 12.86447408-8.00995556 26.45712592-8.00995555 40.2925037 0 17.11217777 3.2768 32.52527409 10.19448888 47.21019259 7.28177778 15.65582222 0.60681482 34.22435555-15.0490074 41.6274963-15.65582222 7.28177778-34.22435555 0.60681482-41.6274963-15.0490074-10.8013037-23.18032592-16.14127408-47.21019259-16.14127407-73.66731852 0.12136297-22.33078518 4.36906667-43.93339259 12.86447407-64.44373333z" fill="#1296db" p-id="3599"></path></svg>